STARTFONT 2.1
FONT -Adobe-ITC Zapf Dingbats-Medium-R-Normal--14-100-100-100-P-115-ADOBE-FONTSPECIFIC
SIZE 10 100 100
FONTBOUNDINGBOX 15 15 -1 -3

STARTPROPERTIES 26
_DEC_DEVICE_FONTNAMES "PS=ZapfDingbats"
FONTNAME_REGISTRY ""
FAMILY_NAME "ITC Zapf Dingbats"
FOUNDRY "Adobe"
WEIGHT_NAME "Medium"
SLANT "R"
SETWIDTH_NAME "Normal"
ADD_STYLE_NAME ""
PIXEL_SIZE 14
POINT_SIZE 100
RESOLUTION_X 100
RESOLUTION_Y 100
SPACING "P"
AVERAGE_WIDTH 115
CHARSET_REGISTRY "ADOBE"
CHARSET_ENCODING "FONTSPECIFIC"
CHARSET_COLLECTIONS "FONTSPECIFIC"
FULL_NAME "ITC Zapf Dingbats"
COPYRIGHT "Copyright (c) 1991 Adobe Systems, Inc."
CAP_HEIGHT 11
X_HEIGHT 8
WEIGHT 10
QUAD_WIDTH 9
DEFAULT_CHAR 0
FONT_DESCENT 3
FONT_ASCENT 12
ENDPROPERTIES

CHARS 188

STARTCHAR space
ENCODING 32
SWIDTH 486 0
DWIDTH 7 0
BBX 1 1 0 0
BITMAP
00
ENDCHAR

STARTCHAR a1
ENCODING 33
SWIDTH 974 0
DWIDTH 14 0
BBX 12 7 1 1
BITMAP
7000
9000
7800
0FE0
7FF0
9700
6380
ENDCHAR

STARTCHAR a2
ENCODING 34
SWIDTH 961 0
DWIDTH 15 0
BBX 13 8 1 1
BITMAP
7000
9878
79F0
0F80
0F80
79F0
9878
7000
ENDCHAR

STARTCHAR a202
ENCODING 35
SWIDTH 974 0
DWIDTH 14 0
BBX 12 7 1 1
BITMAP
6380
9700
7FF0
0FE0
7800
9000
7000
ENDCHAR

STARTCHAR a3
ENCODING 36
SWIDTH 980 0
DWIDTH 15 0
BBX 13 10 1 0
BITMAP
7000
F870
C998
EB30
1EC0
1BC0
EF70
C988
F870
7000
ENDCHAR

STARTCHAR a4
ENCODING 37
SWIDTH 719 0
DWIDTH 12 0
BBX 10 6 1 2
BITMAP
7F80
FFC0
DEC0
3300
3300
3F00
ENDCHAR

STARTCHAR a5
ENCODING 38
SWIDTH 789 0
DWIDTH 12 0
BBX 10 10 1 0
BITMAP
3F00
6180
C6C0
8F40
9A40
B040
3840
58C0
6180
3F00
ENDCHAR

STARTCHAR a119
ENCODING 39
SWIDTH 790 0
DWIDTH 12 0
BBX 10 10 1 0
BITMAP
1E00
6D80
4C80
8C40
8C40
9E40
F3C0
6180
6180
1E00
ENDCHAR

STARTCHAR a118
ENCODING 40
SWIDTH 791 0
DWIDTH 12 0
BBX 10 10 1 0
BITMAP
1800
1C00
0C00
8E00
FFC0
FFC0
8E00
0C00
1C00
1800
ENDCHAR

STARTCHAR a117
ENCODING 41
SWIDTH 690 0
DWIDTH 11 0
BBX 9 6 1 2
BITMAP
FF80
C180
AA80
BE80
C180
FF80
ENDCHAR

STARTCHAR a11
ENCODING 42
SWIDTH 960 0
DWIDTH 15 0
BBX 13 7 1 2
BITMAP
0FF8
BFF8
BFE0
BFC0
BFC0
BFC0
8F80
ENDCHAR

STARTCHAR a12
ENCODING 43
SWIDTH 939 0
DWIDTH 15 0
BBX 13 7 1 2
BITMAP
E7F8
D888
D370
D3C0
D140
FD40
E780
ENDCHAR

STARTCHAR a13
ENCODING 44
SWIDTH 549 0
DWIDTH 10 0
BBX 8 10 1 0
BITMAP
63
55
2A
1C
62
DA
AA
D2
F6
7C
ENDCHAR

STARTCHAR a14
ENCODING 45
SWIDTH 855 0
DWIDTH 13 0
BBX 11 9 1 1
BITMAP
0100
0300
0600
3F00
59E0
BCA0
60A0
DFA0
80E0
ENDCHAR

STARTCHAR a15
ENCODING 46
SWIDTH 911 0
DWIDTH 13 0
BBX 11 10 1 0
BITMAP
3800
4C00
AE00
9300
E180
50C0
2860
1460
0AE0
07E0
ENDCHAR

STARTCHAR a16
ENCODING 47
SWIDTH 933 0
DWIDTH 15 0
BBX 13 6 1 2
BITMAP
7FC0
A0A0
DFD8
D058
A0A0
7FC0
ENDCHAR

STARTCHAR a105
ENCODING 48
SWIDTH 667 0
DWIDTH 13 0
BBX 11 10 1 0
BITMAP
07E0
0AE0
1460
2860
50C0
E180
9300
AE00
4C00
3800
ENDCHAR

STARTCHAR a17
ENCODING 49
SWIDTH 945 0
DWIDTH 14 0
BBX 12 7 1 2
BITMAP
0180
7A40
8420
81F0
8420
7A40
0180
ENDCHAR

STARTCHAR a18
ENCODING 50
SWIDTH 974 0
DWIDTH 14 0
BBX 12 7 1 2
BITMAP
0180
7BC0
FFE0
FE30
FFE0
7BC0
0180
ENDCHAR

STARTCHAR a19
ENCODING 51
SWIDTH 755 0
DWIDTH 12 0
BBX 10 10 1 0
BITMAP
01C0
0380
0380
0700
4600
EE00
FC00
7C00
7800
3800
ENDCHAR

STARTCHAR a20
ENCODING 52
SWIDTH 846 0
DWIDTH 12 0
BBX 10 10 1 0
BITMAP
00C0
01C0
03C0
6780
EF00
FE00
FC00
F800
F000
6000
ENDCHAR

STARTCHAR a21
ENCODING 53
SWIDTH 762 0
DWIDTH 12 0
BBX 10 10 1 0
BITMAP
C0C0
E1C0
7380
3F00
1E00
1E00
3F00
7380
E1C0
C0C0
ENDCHAR

STARTCHAR a22
ENCODING 54
SWIDTH 761 0
DWIDTH 12 0
BBX 10 10 1 0
BITMAP
2100
7380
FFC0
7F80
3F00
3F00
7F80
FFC0
7380
2100
ENDCHAR

STARTCHAR a23
ENCODING 55
SWIDTH 571 0
DWIDTH 10 0
BBX 8 10 1 0
BITMAP
33
36
3C
1C
18
3C
7E
66
E0
C0
ENDCHAR

STARTCHAR a24
ENCODING 56
SWIDTH 677 0
DWIDTH 10 0
BBX 8 10 1 0
BITMAP
63
77
7F
7E
3C
3C
7E
FE
EE
44
ENDCHAR

STARTCHAR a25
ENCODING 57
SWIDTH 763 0
DWIDTH 12 0
BBX 10 10 1 0
BITMAP
1E00
1E00
1E00
FFC0
FFC0
FFC0
FFC0
1E00
1E00
1E00
ENDCHAR

STARTCHAR a26
ENCODING 58
SWIDTH 760 0
DWIDTH 12 0
BBX 10 10 1 0
BITMAP
1E00
1E00
1E00
FFC0
FFC0
FFC0
FFC0
1E00
1E00
1E00
ENDCHAR

STARTCHAR a27
ENCODING 59
SWIDTH 759 0
DWIDTH 12 0
BBX 10 10 1 0
BITMAP
0C00
0C00
0C00
0C00
FFC0
FFC0
0C00
0C00
0C00
0C00
ENDCHAR

STARTCHAR a28
ENCODING 60
SWIDTH 754 0
DWIDTH 12 0
BBX 10 10 1 0
BITMAP
1E00
1E00
1E00
E1C0
E1C0
E1C0
E1C0
1E00
1E00
1E00
ENDCHAR

STARTCHAR a6
ENCODING 61
SWIDTH 494 0
DWIDTH 9 0
BBX 7 10 1 0
BITMAP
10
10
10
FE
10
10
10
10
10
10
ENDCHAR

STARTCHAR a7
ENCODING 62
SWIDTH 552 0
DWIDTH 10 0
BBX 8 10 1 0
BITMAP
38
2C
EE
83
EF
2C
2C
2C
2C
3C
ENDCHAR

STARTCHAR a8
ENCODING 63
SWIDTH 537 0
DWIDTH 9 0
BBX 7 10 1 0
BITMAP
38
38
FE
FE
FE
38
38
38
38
38
ENDCHAR

STARTCHAR a9
ENCODING 64
SWIDTH 577 0
DWIDTH 10 0
BBX 8 8 1 1
BITMAP
3C
3C
DB
FF
FF
DB
3C
3C
ENDCHAR

STARTCHAR a10
ENCODING 65
SWIDTH 692 0
DWIDTH 11 0
BBX 9 10 1 0
BITMAP
0800
1400
FF80
5500
3600
2A00
5500
FF80
1C00
0800
ENDCHAR

STARTCHAR a29
ENCODING 66
SWIDTH 786 0
DWIDTH 12 0
BBX 10 10 1 0
BITMAP
0C00
0C00
0C00
0800
EBC0
F5C0
0400
0C00
0C00
0C00
ENDCHAR

STARTCHAR a30
ENCODING 67
SWIDTH 788 0
DWIDTH 11 0
BBX 9 9 1 0
BITMAP
1C00
1C00
0800
C980
FF80
C980
0800
1C00
1C00
ENDCHAR

STARTCHAR a31
ENCODING 68
SWIDTH 788 0
DWIDTH 12 0
BBX 10 10 1 0
BITMAP
0C00
1E00
1E00
6D80
FFC0
FFC0
6D80
1E00
1E00
0C00
ENDCHAR

STARTCHAR a32
ENCODING 69
SWIDTH 790 0
DWIDTH 12 0
BBX 10 10 1 0
BITMAP
0C00
1E00
1E00
6580
FDC0
EFC0
6980
1E00
1E00
0C00
ENDCHAR

STARTCHAR a33
ENCODING 70
SWIDTH 793 0
DWIDTH 13 0
BBX 11 11 1 0
BITMAP
0400
0E00
0E00
1F00
7FC0
FFE0
7FC0
1F00
0E00
0E00
0400
ENDCHAR

STARTCHAR a34
ENCODING 71
SWIDTH 794 0
DWIDTH 13 0
BBX 11 11 1 0
BITMAP
0400
0E00
0A00
1B00
71C0
C060
3180
1B00
0A00
0E00
0400
ENDCHAR

STARTCHAR a35
ENCODING 72
SWIDTH 816 0
DWIDTH 13 0
BBX 11 11 1 0
BITMAP
0400
0400
0E00
0E00
FFE0
7FC0
3F80
1F00
3F80
3B80
71C0
ENDCHAR

STARTCHAR a36
ENCODING 73
SWIDTH 823 0
DWIDTH 13 0
BBX 11 11 1 0
BITMAP
0400
0400
0E00
0A00
FBE0
4040
3180
1100
2E80
3B80
60C0
ENDCHAR

STARTCHAR a37
ENCODING 74
SWIDTH 789 0
DWIDTH 12 0
BBX 10 10 1 0
BITMAP
1A00
7B80
7380
F3C0
8040
C0C0
E1C0
4C80
5E80
1E00
ENDCHAR

STARTCHAR a38
ENCODING 75
SWIDTH 841 0
DWIDTH 13 0
BBX 11 11 1 0
BITMAP
0400
0400
0E00
0E00
FFE0
7BC0
3180
1B00
3F80
3B80
60C0
ENDCHAR

STARTCHAR a39
ENCODING 76
SWIDTH 823 0
DWIDTH 13 0
BBX 11 12 1 -1
BITMAP
0400
0400
0E00
0A00
FBE0
5EC0
3F80
1500
2E80
3B80
60C0
0000
ENDCHAR

STARTCHAR a40
ENCODING 77
SWIDTH 833 0
DWIDTH 13 0
BBX 11 11 1 0
BITMAP
0400
0400
0E00
0A00
FBE0
4E40
3F80
1500
2E80
3B80
60C0
ENDCHAR

STARTCHAR a41
ENCODING 78
SWIDTH 816 0
DWIDTH 13 0
BBX 11 11 1 0
BITMAP
0400
0400
0E00
0A00
FFE0
5F40
3F80
1F00
2E80
3B80
60C0
ENDCHAR

STARTCHAR a42
ENCODING 79
SWIDTH 831 0
DWIDTH 13 0
BBX 11 11 1 0
BITMAP
0400
0400
0E00
0A00
FFE0
5F40
3F80
1F00
2E80
3B80
60C0
ENDCHAR

STARTCHAR a43
ENCODING 80
SWIDTH 923 0
DWIDTH 14 0
BBX 12 11 1 0
BITMAP
0600
0600
0F00
0B00
FBF0
4060
31C0
1180
2EC0
3FC0
70E0
ENDCHAR

STARTCHAR a44
ENCODING 81
SWIDTH 744 0
DWIDTH 12 0
BBX 10 10 1 0
BITMAP
0C00
4C80
EDC0
7F80
3F00
3F00
7F80
EDC0
4C80
0C00
ENDCHAR

STARTCHAR a45
ENCODING 82
SWIDTH 723 0
DWIDTH 12 0
BBX 10 10 1 0
BITMAP
0C00
4C80
EDC0
7F80
3300
3300
7F80
EDC0
4C80
0C00
ENDCHAR

STARTCHAR a46
ENCODING 83
SWIDTH 749 0
DWIDTH 11 0
BBX 9 11 1 0
BITMAP
0800
0800
C980
6B00
3E00
DD80
3E00
6B00
C980
0800
0800
ENDCHAR

STARTCHAR a47
ENCODING 84
SWIDTH 790 0
DWIDTH 12 0
BBX 10 10 1 0
BITMAP
0C00
4C80
6D80
1E00
FFC0
FFC0
1E00
6D80
4C80
0C00
ENDCHAR

STARTCHAR a48
ENCODING 85
SWIDTH 792 0
DWIDTH 12 0
BBX 10 10 1 0
BITMAP
0C00
6D80
6D80
3F00
FFC0
FFC0
3F00
6D80
6D80
0C00
ENDCHAR

STARTCHAR a49
ENCODING 86
SWIDTH 695 0
DWIDTH 11 0
BBX 9 11 1 0
BITMAP
0800
0800
C980
7F00
3E00
1C00
3E00
7F00
C980
0800
0800
ENDCHAR

STARTCHAR a50
ENCODING 87
SWIDTH 776 0
DWIDTH 13 0
BBX 11 10 1 0
BITMAP
1100
1B00
1B00
FFE0
7FC0
1F00
7FC0
FBE0
1B00
1100
ENDCHAR

STARTCHAR a51
ENCODING 88
SWIDTH 768 0
DWIDTH 13 0
BBX 11 10 1 0
BITMAP
1100
1B00
1F00
FFE0
7FC0
3F80
7FC0
FFE0
1B00
1100
ENDCHAR

STARTCHAR a52
ENCODING 89
SWIDTH 792 0
DWIDTH 13 0
BBX 11 11 1 0
BITMAP
0400
1500
1F00
6EC0
3F80
FFE0
3F80
6EC0
1F00
1500
0400
ENDCHAR

STARTCHAR a53
ENCODING 90
SWIDTH 759 0
DWIDTH 11 0
BBX 9 9 1 0
BITMAP
2A00
5500
BE80
7F00
BE80
7F00
BE80
5500
2A00
ENDCHAR

STARTCHAR a54
ENCODING 91
SWIDTH 700 0
DWIDTH 11 0
BBX 9 10 1 0
BITMAP
1C00
1C00
C980
E380
1C00
1C00
E380
C980
1C00
1C00
ENDCHAR

STARTCHAR a55
ENCODING 92
SWIDTH 708 0
DWIDTH 11 0
BBX 9 10 1 0
BITMAP
1C00
1C00
C980
FF80
3600
3600
FF80
C980
1C00
1C00
ENDCHAR

STARTCHAR a56
ENCODING 93
SWIDTH 682 0
DWIDTH 12 0
BBX 10 10 1 0
BITMAP
0C00
CCC0
EDC0
FFC0
3F00
3F00
FFC0
EDC0
CCC0
0C00
ENDCHAR

STARTCHAR a57
ENCODING 94
SWIDTH 696 0
DWIDTH 11 0
BBX 9 10 1 0
BITMAP
0800
1C00
F780
F780
7F00
DD80
BE80
FF80
1C00
0800
ENDCHAR

STARTCHAR a58
ENCODING 95
SWIDTH 813 0
DWIDTH 13 0
BBX 11 10 1 0
BITMAP
0E00
1F00
6EC0
FFE0
F1E0
F1E0
3B80
7FC0
7FC0
3B80
ENDCHAR

STARTCHAR a59
ENCODING 96
SWIDTH 802 0
DWIDTH 13 0
BBX 11 10 1 0
BITMAP
0E00
1100
71C0
9B20
8E20
CE60
3F80
4440
4440
3B80
ENDCHAR

STARTCHAR a60
ENCODING 97
SWIDTH 789 0
DWIDTH 12 0
BBX 10 10 1 0
BITMAP
1E00
6D80
7F80
BF40
F3C0
F3C0
BF40
7F80
6D80
1E00
ENDCHAR

STARTCHAR a61
ENCODING 98
SWIDTH 789 0
DWIDTH 12 0
BBX 10 10 1 0
BITMAP
1E00
7380
5E80
F3C0
A140
A140
F3C0
5E80
7380
1E00
ENDCHAR

STARTCHAR a62
ENCODING 99
SWIDTH 707 0
DWIDTH 11 0
BBX 9 9 1 0
BITMAP
1C00
D580
B680
DD80
7F00
DD80
B680
D580
1C00
ENDCHAR

STARTCHAR a63
ENCODING 100
SWIDTH 687 0
DWIDTH 13 0
BBX 11 10 1 0
BITMAP
1540
2E80
64C0
3580
8E60
CE20
3580
64C0
2E80
1500
ENDCHAR

STARTCHAR a64
ENCODING 101
SWIDTH 696 0
DWIDTH 13 0
BBX 11 10 1 0
BITMAP
1500
2E80
64C0
75C0
8E20
CE20
75C0
64C0
2E80
1500
ENDCHAR

STARTCHAR a65
ENCODING 102
SWIDTH 689 0
DWIDTH 13 0
BBX 11 10 1 0
BITMAP
1500
2E80
64C0
3580
CA60
CA60
3580
64C0
2E80
1500
ENDCHAR

STARTCHAR a66
ENCODING 103
SWIDTH 786 0
DWIDTH 12 0
BBX 10 10 1 0
BITMAP
0C00
4C80
2D00
1E00
F3C0
F3C0
1E00
2D00
4C80
0C00
ENDCHAR

STARTCHAR a67
ENCODING 104
SWIDTH 787 0
DWIDTH 12 0
BBX 10 10 1 0
BITMAP
0C00
4C80
2D00
1200
EDC0
EDC0
1200
2D00
4C80
0C00
ENDCHAR

STARTCHAR a68
ENCODING 105
SWIDTH 688 0
DWIDTH 11 0
BBX 9 9 1 0
BITMAP
1C00
1C00
C980
EB80
1C00
EB80
C980
1C00
1C00
ENDCHAR

STARTCHAR a69
ENCODING 106
SWIDTH 791 0
DWIDTH 12 0
BBX 10 10 1 0
BITMAP
0C00
6D80
6D80
3F00
FFC0
FFC0
3F00
6D80
6D80
0C00
ENDCHAR

STARTCHAR a70
ENCODING 107
SWIDTH 785 0
DWIDTH 12 0
BBX 10 10 1 0
BITMAP
0C00
6D80
7F80
3F00
FFC0
FFC0
3F00
7F80
6D80
0C00
ENDCHAR

STARTCHAR a71
ENCODING 108
SWIDTH 791 0
DWIDTH 12 0
BBX 10 10 1 0
BITMAP
1E00
7F80
7F80
FFC0
FFC0
FFC0
FFC0
7F80
7F80
1E00
ENDCHAR

STARTCHAR a72
ENCODING 109
SWIDTH 873 0
DWIDTH 13 0
BBX 11 10 1 0
BITMAP
1F00
61C0
40C0
8060
8060
8060
8060
40C0
61C0
1F00
ENDCHAR

STARTCHAR a73
ENCODING 110
SWIDTH 761 0
DWIDTH 12 0
BBX 10 10 1 0
BITMAP
FFC0
FFC0
FFC0
FFC0
FFC0
FFC0
FFC0
FFC0
FFC0
FFC0
ENDCHAR

STARTCHAR a74
ENCODING 111
SWIDTH 762 0
DWIDTH 12 0
BBX 10 10 1 0
BITMAP
FF80
80C0
80C0
80C0
80C0
80C0
80C0
80C0
FFC0
3FC0
ENDCHAR

STARTCHAR a203
ENCODING 112
SWIDTH 762 0
DWIDTH 12 0
BBX 10 10 1 0
BITMAP
3FC0
FFC0
80C0
80C0
80C0
80C0
80C0
80C0
80C0
FF80
ENDCHAR

STARTCHAR a75
ENCODING 113
SWIDTH 759 0
DWIDTH 12 0
BBX 10 10 1 0
BITMAP
FFC0
80C0
80C0
80C0
80C0
80C0
80C0
80C0
FFC0
FFC0
ENDCHAR

STARTCHAR a204
ENCODING 114
SWIDTH 759 0
DWIDTH 12 0
BBX 10 10 1 0
BITMAP
FFC0
FFC0
80C0
80C0
80C0
80C0
80C0
80C0
80C0
FFC0
ENDCHAR

STARTCHAR a76
ENCODING 115
SWIDTH 892 0
DWIDTH 13 0
BBX 11 10 1 0
BITMAP
0400
0E00
0E00
1F00
3F80
3F80
7FC0
7FC0
FFE0
FFE0
ENDCHAR

STARTCHAR a77
ENCODING 116
SWIDTH 892 0
DWIDTH 13 0
BBX 11 10 1 0
BITMAP
FFE0
FFE0
7FC0
7FC0
3F80
1F00
1F00
0E00
0E00
0400
ENDCHAR

STARTCHAR a78
ENCODING 117
SWIDTH 788 0
DWIDTH 11 0
BBX 9 10 1 0
BITMAP
0800
1C00
3E00
7F00
FF80
FF80
7F00
3E00
1C00
0800
ENDCHAR

STARTCHAR a79
ENCODING 118
SWIDTH 784 0
DWIDTH 12 0
BBX 10 10 1 0
BITMAP
0C00
1E00
1E00
6D80
F3C0
F3C0
6D80
1E00
1E00
0C00
ENDCHAR

STARTCHAR a81
ENCODING 119
SWIDTH 438 0
DWIDTH 7 0
BBX 5 10 1 0
BITMAP
C0
F0
F0
F8
F8
F8
F8
F0
F0
C0
ENDCHAR

STARTCHAR a82
ENCODING 120
SWIDTH 138 0
DWIDTH 3 0
BBX 1 10 1 0
BITMAP
80
80
80
80
80
80
80
80
80
80
ENDCHAR

STARTCHAR a83
ENCODING 121
SWIDTH 277 0
DWIDTH 5 0
BBX 3 10 1 0
BITMAP
E0
E0
E0
E0
E0
E0
E0
E0
E0
E0
ENDCHAR

STARTCHAR a84
ENCODING 122
SWIDTH 415 0
DWIDTH 7 0
BBX 5 10 1 0
BITMAP
F8
F8
F8
F8
F8
F8
F8
F8
F8
F8
ENDCHAR

STARTCHAR a97
ENCODING 123
SWIDTH 392 0
DWIDTH 7 0
BBX 5 7 1 3
BITMAP
38
40
F0
F8
F8
F8
70
ENDCHAR

STARTCHAR a98
ENCODING 124
SWIDTH 392 0
DWIDTH 7 0
BBX 5 7 1 3
BITMAP
70
F8
F8
F8
78
10
E0
ENDCHAR

STARTCHAR a99
ENCODING 125
SWIDTH 668 0
DWIDTH 11 0
BBX 9 7 1 3
BITMAP
3B80
4400
F700
FF80
FF80
FF80
7700
ENDCHAR

STARTCHAR a100
ENCODING 126
SWIDTH 668 0
DWIDTH 11 0
BBX 9 7 1 3
BITMAP
7700
FF80
FF80
FF80
7700
2200
CC00
ENDCHAR

STARTCHAR a101
ENCODING 161
SWIDTH 732 0
DWIDTH 10 0
BBX 8 15 1 -3
BITMAP
04
3F
74
F4
F4
F4
F4
74
3C
04
04
64
64
6C
38
ENDCHAR

STARTCHAR a102
ENCODING 162
SWIDTH 544 0
DWIDTH 8 0
BBX 6 10 1 0
BITMAP
78
FC
FC
FC
78
20
30
78
78
30
ENDCHAR

STARTCHAR a103
ENCODING 163
SWIDTH 544 0
DWIDTH 9 0
BBX 7 10 1 0
BITMAP
6C
FE
FE
7C
38
10
38
7C
7C
38
ENDCHAR

STARTCHAR a104
ENCODING 164
SWIDTH 910 0
DWIDTH 13 0
BBX 11 9 1 0
BITMAP
71C0
FBE0
FFE0
FFE0
FFE0
7FC0
3F80
0E00
0400
ENDCHAR

STARTCHAR a106
ENCODING 165
SWIDTH 667 0
DWIDTH 11 0
BBX 9 11 1 0
BITMAP
7000
F800
F800
FC00
7E00
3F80
7E00
FC00
F800
F800
7000
ENDCHAR

STARTCHAR a107
ENCODING 166
SWIDTH 760 0
DWIDTH 11 0
BBX 9 11 1 0
BITMAP
0800
7480
9F00
8800
3600
7F00
7F00
7E00
3C00
1B00
0E00
ENDCHAR

STARTCHAR a108
ENCODING 167
SWIDTH 760 0
DWIDTH 13 0
BBX 11 7 1 1
BITMAP
3000
4700
2780
5FA0
8FA0
AFC0
6780
ENDCHAR

STARTCHAR a112
ENCODING 168
SWIDTH 776 0
DWIDTH 13 0
BBX 11 10 1 0
BITMAP
0E00
1F00
1F00
6EC0
FFE0
FFE0
FFE0
75C0
0E00
1F00
ENDCHAR

STARTCHAR a111
ENCODING 169
SWIDTH 595 0
DWIDTH 11 0
BBX 9 9 1 0
BITMAP
0800
1C00
3E00
7F00
FF80
7F00
3E00
1C00
0800
ENDCHAR

STARTCHAR a110
ENCODING 170
SWIDTH 694 0
DWIDTH 11 0
BBX 9 9 1 0
BITMAP
6300
F780
FF80
FF80
7F00
7F00
3E00
1C00
0800
ENDCHAR

STARTCHAR a109
ENCODING 171
SWIDTH 626 0
DWIDTH 10 0
BBX 8 10 1 0
BITMAP
18
18
3C
7E
FF
FF
FF
7E
18
7E
ENDCHAR

STARTCHAR a120
ENCODING 172
SWIDTH 788 0
DWIDTH 12 0
BBX 10 10 1 0
BITMAP
1E00
6180
5C80
8C40
8C40
8C40
8C40
5E80
6180
1E00
ENDCHAR

STARTCHAR a121
ENCODING 173
SWIDTH 788 0
DWIDTH 12 0
BBX 10 10 1 0
BITMAP
1E00
6180
4C80
9A40
8640
8C40
DAC0
5E80
6180
1E00
ENDCHAR

STARTCHAR a122
ENCODING 174
SWIDTH 788 0
DWIDTH 12 0
BBX 10 10 1 0
BITMAP
1E00
6180
4C80
9640
8C40
8640
9640
4C80
6180
1E00
ENDCHAR

STARTCHAR a123
ENCODING 175
SWIDTH 788 0
DWIDTH 12 0
BBX 10 10 1 0
BITMAP
1E00
7180
4680
8E40
9640
A640
BF40
4680
6180
1E00
ENDCHAR

STARTCHAR a124
ENCODING 176
SWIDTH 788 0
DWIDTH 12 0
BBX 10 10 1 0
BITMAP
1E00
6180
5E80
D8C0
9E40
8340
DB40
4E80
6180
1E00
ENDCHAR

STARTCHAR a125
ENCODING 177
SWIDTH 788 0
DWIDTH 12 0
BBX 10 10 1 0
BITMAP
1E00
6180
5E80
B040
BE40
B340
B340
9E80
4180
3E00
ENDCHAR

STARTCHAR a126
ENCODING 178
SWIDTH 788 0
DWIDTH 12 0
BBX 10 10 1 0
BITMAP
1E00
6180
5E80
DEC0
8440
8C40
CCC0
4C80
6380
1E00
ENDCHAR

STARTCHAR a127
ENCODING 179
SWIDTH 788 0
DWIDTH 12 0
BBX 10 10 1 0
BITMAP
1E00
6180
4E80
9A40
8E40
9B40
9B40
4E80
6180
1E00
ENDCHAR

STARTCHAR a128
ENCODING 180
SWIDTH 788 0
DWIDTH 12 0
BBX 10 10 1 0
BITMAP
1E00
6180
4E80
9B40
9B40
8F40
9340
4E80
6180
1E00
ENDCHAR

STARTCHAR a129
ENCODING 181
SWIDTH 788 0
DWIDTH 12 0
BBX 10 10 1 0
BITMAP
1E00
6180
5680
9540
9540
9540
9540
5680
6180
1E00
ENDCHAR

STARTCHAR a130
ENCODING 182
SWIDTH 788 0
DWIDTH 12 0
BBX 10 10 1 0
BITMAP
1E00
7F80
6380
F3C0
F3C0
F3C0
F3C0
6180
7F80
1E00
ENDCHAR

STARTCHAR a131
ENCODING 183
SWIDTH 788 0
DWIDTH 12 0
BBX 10 10 1 0
BITMAP
1E00
7F80
6380
C9C0
F9C0
F3C0
E6C0
4180
7F80
1E00
ENDCHAR

STARTCHAR a132
ENCODING 184
SWIDTH 788 0
DWIDTH 12 0
BBX 10 10 1 0
BITMAP
1E00
7F80
6180
ECC0
F9C0
FCC0
E4C0
6180
7F80
1E00
ENDCHAR

STARTCHAR a133
ENCODING 185
SWIDTH 788 0
DWIDTH 12 0
BBX 10 10 1 0
BITMAP
1E00
7F80
7980
F1C0
E9C0
D9C0
C0C0
7980
7F80
1E00
ENDCHAR

STARTCHAR a134
ENCODING 186
SWIDTH 788 0
DWIDTH 12 0
BBX 10 10 1 0
BITMAP
1E00
7F80
6080
EFC0
E1C0
FCC0
E4C0
6180
7F80
1E00
ENDCHAR

STARTCHAR a135
ENCODING 187
SWIDTH 788 0
DWIDTH 12 0
BBX 10 10 1 0
BITMAP
1E00
7F80
7080
E7C0
E1C0
E4C0
E4C0
7180
7F80
1E00
ENDCHAR

STARTCHAR a136
ENCODING 188
SWIDTH 788 0
DWIDTH 12 0
BBX 10 10 1 0
BITMAP
1E00
7F80
6080
E5C0
F9C0
FBC0
F3C0
7380
7F80
1E00
ENDCHAR

STARTCHAR a137
ENCODING 189
SWIDTH 788 0
DWIDTH 12 0
BBX 10 10 1 0
BITMAP
1E00
7F80
7180
E4C0
F1C0
E4C0
E6C0
7180
7F80
1E00
ENDCHAR

STARTCHAR a138
ENCODING 190
SWIDTH 788 0
DWIDTH 12 0
BBX 10 10 1 0
BITMAP
1E00
7F80
7180
E4C0
E4C0
F0C0
FCC0
6180
7F80
1E00
ENDCHAR

STARTCHAR a139
ENCODING 191
SWIDTH 788 0
DWIDTH 12 0
BBX 10 10 1 0
BITMAP
1E00
7F80
4880
EAC0
EAC0
EAC0
EAC0
4080
7F80
1E00
ENDCHAR

STARTCHAR a140
ENCODING 192
SWIDTH 788 0
DWIDTH 12 0
BBX 10 10 1 0
BITMAP
1E00
6180
4C80
9C40
8C40
8C40
8C40
4C80
6180
1E00
ENDCHAR

STARTCHAR a141
ENCODING 193
SWIDTH 788 0
DWIDTH 12 0
BBX 10 10 1 0
BITMAP
1E00
6180
4C80
9A40
8640
8C40
D8C0
5E80
6180
1E00
ENDCHAR

STARTCHAR a142
ENCODING 194
SWIDTH 788 0
DWIDTH 12 0
BBX 10 10 1 0
BITMAP
1E00
6180
4C80
9640
8C40
8640
9640
4C80
6180
1E00
ENDCHAR

STARTCHAR a143
ENCODING 195
SWIDTH 788 0
DWIDTH 12 0
BBX 10 10 1 0
BITMAP
1E00
7180
4680
8E40
9640
A640
BF40
4680
6180
1E00
ENDCHAR

STARTCHAR a144
ENCODING 196
SWIDTH 788 0
DWIDTH 12 0
BBX 10 10 1 0
BITMAP
1E00
6180
5E80
D8C0
9E40
8340
DB40
4E80
6180
1E00
ENDCHAR

STARTCHAR a145
ENCODING 197
SWIDTH 788 0
DWIDTH 12 0
BBX 10 10 1 0
BITMAP
1E00
6180
5E80
B040
BE40
B340
B340
DE80
4180
3E00
ENDCHAR

STARTCHAR a146
ENCODING 198
SWIDTH 788 0
DWIDTH 12 0
BBX 10 10 1 0
BITMAP
1E00
6180
5E80
DEC0
8440
8C40
CCC0
4C80
6380
1E00
ENDCHAR

STARTCHAR a147
ENCODING 199
SWIDTH 788 0
DWIDTH 12 0
BBX 10 10 1 0
BITMAP
1E00
6180
4E80
9A40
8E40
9B40
9B40
4E80
6180
1E00
ENDCHAR

STARTCHAR a148
ENCODING 200
SWIDTH 788 0
DWIDTH 12 0
BBX 10 10 1 0
BITMAP
1E00
6180
4E80
9B40
9B40
8F40
9340
4E80
6180
1E00
ENDCHAR

STARTCHAR a149
ENCODING 201
SWIDTH 788 0
DWIDTH 12 0
BBX 10 10 1 0
BITMAP
1E00
6180
7680
9540
9540
9540
9540
5680
6180
1E00
ENDCHAR

STARTCHAR a150
ENCODING 202
SWIDTH 788 0
DWIDTH 12 0
BBX 10 10 1 0
BITMAP
1E00
7F80
6380
F3C0
F3C0
F3C0
F3C0
7380
7F80
1E00
ENDCHAR

STARTCHAR a151
ENCODING 203
SWIDTH 788 0
DWIDTH 12 0
BBX 10 10 1 0
BITMAP
1E00
7F80
6380
C9C0
F9C0
F3C0
E7C0
4180
7F80
1E00
ENDCHAR

STARTCHAR a152
ENCODING 204
SWIDTH 788 0
DWIDTH 12 0
BBX 10 10 1 0
BITMAP
1E00
7F80
6180
ECC0
F9C0
FCC0
E4C0
7180
7F80
1E00
ENDCHAR

STARTCHAR a153
ENCODING 205
SWIDTH 788 0
DWIDTH 12 0
BBX 10 10 1 0
BITMAP
1E00
7F80
7980
F1C0
E9C0
D9C0
C0C0
7980
7F80
1E00
ENDCHAR

STARTCHAR a154
ENCODING 206
SWIDTH 788 0
DWIDTH 12 0
BBX 10 10 1 0
BITMAP
1E00
7F80
6180
EFC0
E1C0
FCC0
E4C0
7180
7F80
1E00
ENDCHAR

STARTCHAR a155
ENCODING 207
SWIDTH 788 0
DWIDTH 12 0
BBX 10 10 1 0
BITMAP
1E00
7F80
7080
E7C0
E1C0
E4C0
E4C0
7180
7F80
1E00
ENDCHAR

STARTCHAR a156
ENCODING 208
SWIDTH 788 0
DWIDTH 12 0
BBX 10 10 1 0
BITMAP
1E00
7F80
4180
C1C0
FBC0
F3C0
F7C0
6780
7F80
1E00
ENDCHAR

STARTCHAR a157
ENCODING 209
SWIDTH 788 0
DWIDTH 12 0
BBX 10 10 1 0
BITMAP
1E00
7F80
7180
E4C0
F1C0
E4C0
E6C0
7180
7F80
1E00
ENDCHAR

STARTCHAR a158
ENCODING 210
SWIDTH 788 0
DWIDTH 12 0
BBX 10 10 1 0
BITMAP
1E00
7F80
7180
E4C0
E4C0
F0C0
FCC0
6180
7F80
1E00
ENDCHAR

STARTCHAR a159
ENCODING 211
SWIDTH 788 0
DWIDTH 12 0
BBX 10 10 1 0
BITMAP
1E00
7F80
4880
EAC0
EAC0
EAC0
EAC0
6880
7F80
1E00
ENDCHAR

STARTCHAR a160
ENCODING 212
SWIDTH 894 0
DWIDTH 13 0
BBX 11 10 1 0
BITMAP
0600
0700
0380
01C0
FFE0
FFE0
01C0
0380
0700
0600
ENDCHAR

STARTCHAR a161
ENCODING 213
SWIDTH 838 0
DWIDTH 12 0
BBX 10 5 1 2
BITMAP
0100
0180
FFC0
0180
0100
ENDCHAR

STARTCHAR a163
ENCODING 214
SWIDTH 1016 0
DWIDTH 14 0
BBX 12 5 1 2
BITMAP
2040
6060
FFF0
6060
2040
ENDCHAR

STARTCHAR a164
ENCODING 215
SWIDTH 458 0
DWIDTH 7 0
BBX 5 11 1 0
BITMAP
20
70
F8
20
20
20
20
20
F8
70
20
ENDCHAR

STARTCHAR a196
ENCODING 216
SWIDTH 733 0
DWIDTH 10 0
BBX 8 8 1 1
BITMAP
C0
E0
70
38
1D
0F
07
0F
ENDCHAR

STARTCHAR a165
ENCODING 217
SWIDTH 924 0
DWIDTH 12 0
BBX 10 6 1 2
BITMAP
0300
0180
FFC0
FFC0
0180
0300
ENDCHAR

STARTCHAR a192
ENCODING 218
SWIDTH 927 0
DWIDTH 10 0
BBX 8 8 1 1
BITMAP
0F
07
0F
1D
38
70
E0
C0
ENDCHAR

STARTCHAR a166
ENCODING 219
SWIDTH 918 0
DWIDTH 13 0
BBX 11 5 1 2
BITMAP
1C00
0F00
FFE0
0F00
1C00
ENDCHAR

STARTCHAR a167
ENCODING 220
SWIDTH 927 0
DWIDTH 14 0
BBX 12 9 1 0
BITMAP
0300
0380
01C0
FFE0
FFF0
FFE0
01C0
0380
0300
ENDCHAR

STARTCHAR a168
ENCODING 221
SWIDTH 928 0
DWIDTH 14 0
BBX 12 7 1 1
BITMAP
0080
00C0
00E0
FFF0
00E0
00C0
0080
ENDCHAR

STARTCHAR a169
ENCODING 222
SWIDTH 928 0
DWIDTH 14 0
BBX 12 6 1 2
BITMAP
0040
0060
FFF0
FFF0
0060
0040
ENDCHAR

STARTCHAR a170
ENCODING 223
SWIDTH 834 0
DWIDTH 13 0
BBX 11 7 1 2
BITMAP
0100
0180
AFC0
AFE0
AFC0
0180
0100
ENDCHAR

STARTCHAR a171
ENCODING 224
SWIDTH 803 0
DWIDTH 13 0
BBX 11 8 1 1
BITMAP
0100
0180
AFC0
AFE0
AFE0
AFC0
0180
0100
ENDCHAR

STARTCHAR a172
ENCODING 225
SWIDTH 828 0
DWIDTH 12 0
BBX 10 6 1 2
BITMAP
0100
FF80
FFC0
FFC0
FF80
0100
ENDCHAR

STARTCHAR a173
ENCODING 226
SWIDTH 862 0
DWIDTH 14 0
BBX 12 9 1 0
BITMAP
E000
5800
2600
1180
0870
1F80
3E00
7800
E000
ENDCHAR

STARTCHAR a162
ENCODING 227
SWIDTH 838 0
DWIDTH 14 0
BBX 12 9 1 0
BITMAP
E000
7800
3E00
1F80
0870
1180
2600
5800
E000
ENDCHAR

STARTCHAR a174
ENCODING 228
SWIDTH 847 0
DWIDTH 13 0
BBX 11 10 1 0
BITMAP
C000
F000
7E00
3F80
1FE0
1FE0
3F80
7E00
F000
C000
ENDCHAR

STARTCHAR a175
ENCODING 229
SWIDTH 930 0
DWIDTH 13 0
BBX 11 9 1 1
BITMAP
8000
8100
C180
FFC0
FFE0
FFE0
7FC0
0180
0100
ENDCHAR

STARTCHAR a176
ENCODING 230
SWIDTH 861 0
DWIDTH 13 0
BBX 11 9 1 0
BITMAP
0100
0180
7FC0
FFE0
FFE0
FFC0
C180
8100
8000
ENDCHAR

STARTCHAR a177
ENCODING 231
SWIDTH 463 0
DWIDTH 9 0
BBX 7 11 1 0
BITMAP
20
20
F0
F8
FC
FE
FC
F8
F0
20
20
ENDCHAR

STARTCHAR a178
ENCODING 232
SWIDTH 883 0
DWIDTH 13 0
BBX 11 9 1 1
BITMAP
0800
0C00
FE00
FF80
FFE0
FF80
FE00
0C00
0800
ENDCHAR

STARTCHAR a179
ENCODING 233
SWIDTH 836 0
DWIDTH 13 0
BBX 11 10 1 0
BITMAP
0600
0700
0580
FCC0
8060
8060
FCC0
0580
0700
0600
ENDCHAR

STARTCHAR a193
ENCODING 234
SWIDTH 836 0
DWIDTH 12 0
BBX 10 10 1 0
BITMAP
0C00
0E00
0D00
FC80
C040
C040
FC80
0D00
0E00
0C00
ENDCHAR

STARTCHAR a180
ENCODING 235
SWIDTH 797 0
DWIDTH 13 0
BBX 11 8 1 1
BITMAP
0100
3E80
4040
8020
F8E0
FBC0
0F00
0C00
ENDCHAR

STARTCHAR a199
ENCODING 236
SWIDTH 797 0
DWIDTH 13 0
BBX 11 8 1 1
BITMAP
0C00
0F00
FBC0
F8E0
8020
4040
3E80
0100
ENDCHAR

STARTCHAR a181
ENCODING 237
SWIDTH 626 0
DWIDTH 10 0
BBX 8 9 1 0
BITMAP
10
F8
8C
86
83
87
FE
FC
18
ENDCHAR

STARTCHAR a200
ENCODING 238
SWIDTH 626 0
DWIDTH 10 0
BBX 8 9 1 0
BITMAP
18
FC
FE
87
83
86
8C
F8
10
ENDCHAR

STARTCHAR a182
ENCODING 239
SWIDTH 874 0
DWIDTH 13 0
BBX 11 9 1 0
BITMAP
0200
FD00
8080
4040
2020
4060
FCC0
FF80
0300
ENDCHAR

STARTCHAR a201
ENCODING 241
SWIDTH 874 0
DWIDTH 13 0
BBX 11 10 1 0
BITMAP
0200
FF00
FF80
81C0
40E0
2060
4040
8080
FD00
0200
ENDCHAR

STARTCHAR a183
ENCODING 242
SWIDTH 760 0
DWIDTH 11 0
BBX 9 9 1 0
BITMAP
7E00
F700
F380
0180
0080
0180
F380
F700
7E00
ENDCHAR

STARTCHAR a184
ENCODING 243
SWIDTH 946 0
DWIDTH 14 0
BBX 12 7 1 2
BITMAP
F800
5440
2A60
3FF0
2A60
5440
F800
ENDCHAR

STARTCHAR a197
ENCODING 244
SWIDTH 771 0
DWIDTH 12 0
BBX 11 11 0 0
BITMAP
0800
1C00
1E00
6E00
F600
7A00
3E20
0160
00E0
01E0
03E0
ENDCHAR

STARTCHAR a185
ENCODING 245
SWIDTH 865 0
DWIDTH 13 0
BBX 11 5 1 3
BITMAP
F880
7CC0
07E0
7CC0
F880
ENDCHAR

STARTCHAR a194
ENCODING 246
SWIDTH 883 0
DWIDTH 13 0
BBX 11 11 1 0
BITMAP
03E0
01E0
00E0
0160
3E20
7A00
F600
6E00
1E00
1C00
0800
ENDCHAR

STARTCHAR a198
ENCODING 247
SWIDTH 888 0
DWIDTH 12 0
BBX 12 11 -1 0
BITMAP
0000
0200
0300
0380
0380
3F80
1F90
0F90
0070
0070
01F0
ENDCHAR

STARTCHAR a186
ENCODING 248
SWIDTH 967 0
DWIDTH 15 0
BBX 13 7 1 2
BITMAP
F040
F860
7C70
3FF8
7C70
F860
F040
ENDCHAR

STARTCHAR a195
ENCODING 249
SWIDTH 872 0
DWIDTH 12 0
BBX 10 10 1 0
BITMAP
07C0
01C0
01C0
3E40
7E40
FE00
0E00
0E00
0C00
0800
ENDCHAR

STARTCHAR a187
ENCODING 250
SWIDTH 831 0
DWIDTH 13 0
BBX 11 7 1 2
BITMAP
0300
0380
F9C0
FFE0
F9C0
0380
0300
ENDCHAR

STARTCHAR a188
ENCODING 251
SWIDTH 873 0
DWIDTH 14 0
BBX 12 7 1 2
BITMAP
3080
78C0
FEE0
FFF0
FEE0
78C0
3080
ENDCHAR

STARTCHAR a189
ENCODING 252
SWIDTH 927 0
DWIDTH 14 0
BBX 12 5 1 3
BITMAP
F8C0
FCE0
7FF0
FCE0
F8C0
ENDCHAR

STARTCHAR a190
ENCODING 253
SWIDTH 970 0
DWIDTH 14 0
BBX 12 8 1 1
BITMAP
FC80
FEC0
7EE0
3FF0
3FF0
7EE0
FEC0
FC80
ENDCHAR

STARTCHAR a191
ENCODING 254
SWIDTH 918 0
DWIDTH 14 0
BBX 12 9 1 1
BITMAP
0500
0280
0140
FFA0
0010
FFA0
0140
0280
0500
ENDCHAR
ENDFONT
